<?xml version="1.0" encoding="UTF-8"?>
<svg version="1.1" xmlns="http://www.w3.org/2000/svg" width="100" height="100">
<path d="M0 0 C1.05960938 0.02707031 2.11921875 0.05414063 3.2109375 0.08203125 C4.00757813 0.11683594 4.80421875 0.15164062 5.625 0.1875 C3.405436 4.93938475 0.610783 8.25333523 -4.21484375 10.5234375 C-7.70232682 12.35986245 -9.9495016 14.42890605 -12.6875 17.25 C-13.54988281 18.12785156 -14.41226562 19.00570312 -15.30078125 19.91015625 C-18.39657597 23.30911731 -18.7370666 25.58416997 -18.64453125 30.2109375 C-18.48040419 32.38386125 -18.48040419 32.38386125 -16.875 34.6875 C-14.06401654 36.37409008 -11.81317255 36.93683798 -8.5234375 36.765625 C-1.19795726 34.79440486 5.43458721 25.86739349 9.1875 19.5625 C10.96704631 16.62238001 13.0736999 14.47712829 15.625 12.1875 C16.285 12.1875 16.945 12.1875 17.625 12.1875 C18.12565314 18.86287525 18.53335558 24.54963641 14.4453125 30.109375 C1.05779309 45.39298085 1.05779309 45.39298085 -7.33984375 46.62109375 C-13.94546329 46.62977393 -18.08596698 46.26446295 -23.375 42.1875 C-28.33772347 36.83298257 -28.80983952 32.33893525 -28.69921875 25.2421875 C-27.72304457 16.04498017 -19.05024623 8.91839794 -12.375 3.1875 C-8.07263665 0.54339855 -5.02550025 -0.16751668 0 0 Z " fill="#EF5354" transform="translate(36.375,45.8125)"/>
<path d="M0 0 C4.57861636 2.59797894 8.08745349 5.96068945 9.5859375 11.12109375 C10.55554371 18.5446413 9.99904428 23.92396509 5.5859375 30.12109375 C3.74479619 32.33470497 1.76902783 34.35966038 -0.2890625 36.37109375 C-0.79308594 36.88671875 -1.29710937 37.40234375 -1.81640625 37.93359375 C-5.90331382 41.98914397 -9.70006834 44.87346655 -15.625 45.4140625 C-16.66914062 45.37925781 -17.71328125 45.34445313 -18.7890625 45.30859375 C-19.84867188 45.28152344 -20.90828125 45.25445312 -22 45.2265625 C-22.79664063 45.19175781 -23.59328125 45.15695313 -24.4140625 45.12109375 C-22.1944985 40.369209 -19.3998455 37.05525852 -14.57421875 34.78515625 C-11.08673568 32.9487313 -8.8395609 30.8796877 -6.1015625 28.05859375 C-5.23917969 27.18074219 -4.37679687 26.30289063 -3.48828125 25.3984375 C-0.39248653 21.99947644 -0.0519959 19.72442378 -0.14453125 15.09765625 C-0.30865831 12.9247325 -0.30865831 12.9247325 -1.9140625 10.62109375 C-4.72504596 8.93450367 -6.97588995 8.37175577 -10.265625 8.54296875 C-17.59110524 10.51418889 -24.22364971 19.44120026 -27.9765625 25.74609375 C-29.75610881 28.68621374 -31.8627624 30.83146546 -34.4140625 33.12109375 C-35.0740625 33.12109375 -35.7340625 33.12109375 -36.4140625 33.12109375 C-36.91471564 26.4457185 -37.32241808 20.75895734 -33.234375 15.19921875 C-24.26727477 4.96210003 -14.83216063 -5.40005848 0 0 Z " fill="#EC5455" transform="translate(82.4140625,8.87890625)"/>
<path d="M0 0 C1.1875 1.6875 1.1875 1.6875 2 4 C-0.96009538 10.02574851 -6.04992116 14.49565908 -10.72338867 19.20385742 C-12.31156012 20.81154857 -13.87714391 22.43930875 -15.44335938 24.06835938 C-16.45700779 25.09506039 -17.47193968 26.12049615 -18.48828125 27.14453125 C-19.85786987 28.54215698 -19.85786987 28.54215698 -21.25512695 29.96801758 C-24.46914601 32.34730075 -26.09262396 32.44652647 -30 32 C-31.1875 30.3125 -31.1875 30.3125 -32 28 C-29.03990462 21.97425149 -23.95007884 17.50434092 -19.27661133 12.79614258 C-17.68843988 11.18845143 -16.12285609 9.56069125 -14.55664062 7.93164062 C-13.54299221 6.90493961 -12.52806032 5.87950385 -11.51171875 4.85546875 C-10.59865967 3.92371826 -9.68560059 2.99196777 -8.74487305 2.03198242 C-5.53085399 -0.34730075 -3.90737604 -0.44652647 0 0 Z " fill="#F85151" transform="translate(65,34)"/>
<path d="M0 0 C1.1875 1.6875 1.1875 1.6875 2 4 C0.07294082 8.88188325 -4.00377259 11.81396664 -8 15 C-7.4740625 13.88625 -7.4740625 13.88625 -6.9375 12.75 C-5.95490707 9.8677274 -5.9673198 8.78823655 -7 6 C-7.598125 6.639375 -8.19625 7.27875 -8.8125 7.9375 C-11 10 -11 10 -14 11 C-14.556875 11.70125 -15.11375 12.4025 -15.6875 13.125 C-19.68024339 18.08895124 -24.24806933 22.22963652 -30 25 C-25.22158892 19.29500601 -20.19907733 13.88597769 -15 8.5625 C-13.82824219 7.32209961 -13.82824219 7.32209961 -12.6328125 6.05664062 C-11.86710937 5.27611328 -11.10140625 4.49558594 -10.3125 3.69140625 C-9.62800781 2.98185791 -8.94351563 2.27230957 -8.23828125 1.54125977 C-5.35650918 -0.44310183 -3.42450659 -0.28935611 0 0 Z " fill="#F25152" transform="translate(65,34)"/>
<path d="M0 0 C1.32 0 2.64 0 4 0 C3.625 2.9375 3.625 2.9375 3 6 C2.01 6.495 2.01 6.495 1 7 C0.58344201 9.1522163 0.26491552 11.32390825 0 13.5 C-0.26491552 15.67609175 -0.58344201 17.8477837 -1 20 C-1.66 20.33 -2.32 20.66 -3 21 C-5.28928166 19.207335 -5.94918203 18.33081505 -6.3984375 15.40625 C-6.39070312 14.4471875 -6.38296875 13.488125 -6.375 12.5 C-6.38273438 11.5409375 -6.39046875 10.581875 -6.3984375 9.59375 C-5.94328105 6.63077079 -5.34768119 5.78652813 -3 4 C-2.34 3.67 -1.68 3.34 -1 3 C-0.67 2.01 -0.34 1.02 0 0 Z " fill="#F95150" transform="translate(15,62)"/>
<path d="M0 0 C0.99 0.66 1.98 1.32 3 2 C0.48327606 4.69118578 -2.06707069 7.34799623 -4.625 10 C-5.33785156 10.763125 -6.05070312 11.52625 -6.78515625 12.3125 C-12.21140263 17.88809261 -12.21140263 17.88809261 -16.5234375 18.5 C-17.34070312 18.335 -18.15796875 18.17 -19 18 C-19.66 16.68 -20.32 15.36 -21 14 C-20.34 13.01 -19.68 12.02 -19 11 C-19 12.65 -19 14.3 -19 16 C-18.01 16 -17.02 16 -16 16 C-15.67 14.02 -15.34 12.04 -15 10 C-13.35 10 -11.7 10 -10 10 C-9.67 9.01 -9.34 8.02 -9 7 C-7.02 6.67 -5.04 6.34 -3 6 C-3 5.01 -3 4.02 -3 3 C-2.34 3 -1.68 3 -1 3 C-0.67 2.01 -0.34 1.02 0 0 Z " fill="#E85456" transform="translate(54,48)"/>
<path d="M0 0 C0.90492187 0.02320313 1.80984375 0.04640625 2.7421875 0.0703125 C4.10730469 0.09738281 4.10730469 0.09738281 5.5 0.125 C6.19867188 0.14820313 6.89734375 0.17140625 7.6171875 0.1953125 C7.6171875 0.8553125 7.6171875 1.5153125 7.6171875 2.1953125 C8.9371875 2.5253125 10.2571875 2.8553125 11.6171875 3.1953125 C12.21451569 5.95795539 12.6171875 8.35564019 12.6171875 11.1953125 C11.9571875 11.1953125 11.2971875 11.1953125 10.6171875 11.1953125 C10.2871875 10.5353125 9.9571875 9.8753125 9.6171875 9.1953125 C7.59255495 8.54317958 7.59255495 8.54317958 5.6171875 8.1953125 C5.6171875 7.5353125 5.6171875 6.8753125 5.6171875 6.1953125 C2.6471875 6.1953125 -0.3228125 6.1953125 -3.3828125 6.1953125 C-3.0528125 5.2053125 -2.7228125 4.2153125 -2.3828125 3.1953125 C-3.0428125 2.8653125 -3.7028125 2.5353125 -4.3828125 2.1953125 C-2.3828125 0.1953125 -2.3828125 0.1953125 0 0 Z " fill="#F95152" transform="translate(72.3828125,8.8046875)"/>
<path d="M0 0 C0.66 0.33 1.32 0.66 2 1 C-0.31 3.31 -2.62 5.62 -5 8 C-4.67 8.99 -4.34 9.98 -4 11 C-4.7425 11.37125 -5.485 11.7425 -6.25 12.125 C-9.46756298 14.31879294 -10.90994765 16.75681532 -13 20 C-13.66 20 -14.32 20 -15 20 C-15 23.63 -15 27.26 -15 31 C-15.33 31 -15.66 31 -16 31 C-16.50030406 24.32927918 -16.8961497 18.66189334 -12.84375 13.08984375 C-8.79165254 8.4968943 -4.43245359 4.22286296 0 0 Z " fill="#E25659" transform="translate(24,49)"/>
<path d="M0 0 C1.61648437 0.04060547 1.61648437 0.04060547 3.265625 0.08203125 C4.08546875 0.11683594 4.9053125 0.15164062 5.75 0.1875 C4.00153574 3.95838145 1.89284824 6.42792594 -1.25 9.1875 C-2.24 9.1875 -3.23 9.1875 -4.25 9.1875 C-3.92 7.8675 -3.59 6.5475 -3.25 5.1875 C-2.59 5.1875 -1.93 5.1875 -1.25 5.1875 C-1.25 4.5275 -1.25 3.8675 -1.25 3.1875 C-1.806875 3.373125 -2.36375 3.55875 -2.9375 3.75 C-5.649133 4.26301165 -7.59371039 3.8515724 -10.25 3.1875 C-6.86416198 0.05642164 -4.53890538 -0.14800778 0 0 Z " fill="#E25353" transform="translate(36.25,45.8125)"/>
<path d="M0 0 C0.99 1.32 1.98 2.64 3 4 C-1.61534219 8.06478107 -6.25585812 12.08608295 -11 16 C-9.33333333 12.66666667 -7.66666667 9.33333333 -6 6 C-5.01 6 -4.02 6 -3 6 C-3.33 5.01 -3.66 4.02 -4 3 C-2.68 2.01 -1.36 1.02 0 0 Z " fill="#E65659" transform="translate(29,52)"/>
<path d="M0 0 C1.0625 1.8125 1.0625 1.8125 2 4 C1.67 4.99 1.34 5.98 1 7 C-0.33076989 7.34342449 -1.66431979 7.67619874 -3 8 C-3.99 9.485 -3.99 9.485 -5 11 C-7.63965207 12.61785127 -8.84012675 13 -12 13 C-11.21753906 12.22914062 -10.43507813 11.45828125 -9.62890625 10.6640625 C-8.60663943 9.65117427 -7.58451119 8.63814616 -6.5625 7.625 C-6.04623047 7.11710937 -5.52996094 6.60921875 -4.99804688 6.0859375 C-2.142867 3.31431064 -2.142867 3.31431064 0 0 Z " fill="#DF5654" transform="translate(82,30)"/>
<path d="M0 0 C0.66 0 1.32 0 2 0 C1.95359375 0.66386719 1.9071875 1.32773438 1.859375 2.01171875 C1.57488443 7.88116257 1.57488443 7.88116257 4 13.125 C4.66 13.74375 5.32 14.3625 6 15 C4.68 15 3.36 15 2 15 C1.34 14.34 0.68 13.68 0 13 C-0.33 13 -0.66 13 -1 13 C-1.02686553 11.02090602 -1.04633375 9.04171029 -1.0625 7.0625 C-1.07410156 5.96035156 -1.08570313 4.85820313 -1.09765625 3.72265625 C-1 1 -1 1 0 0 Z " fill="#DC5859" transform="translate(16,68)"/>
<path d="M0 0 C5.66235414 1.31682654 7.78427747 3.36557635 11 8 C11 8.99 11 9.98 11 11 C10.34 11 9.68 11 9 11 C9 10.01 9 9.02 9 8 C7.68 8.33 6.36 8.66 5 9 C4.731875 8.030625 4.46375 7.06125 4.1875 6.0625 C3.795625 5.051875 3.40375 4.04125 3 3 C2.01 2.67 1.02 2.34 0 2 C0 1.34 0 0.68 0 0 Z " fill="#DC5A5B" transform="translate(80,9)"/>
<path d="M0 0 C0.33 0.66 0.66 1.32 1 2 C-3.18221366 7.75054379 -8.46720582 13.03982764 -15 16 C-10.30233025 10.33870569 -5.25276628 5.14771096 0 0 Z " fill="#D35254" transform="translate(50,43)"/>
<path d="M0 0 C2.375 0.6875 2.375 0.6875 5 2 C6.2974952 4.47141943 7 6.20792573 7 9 C3.64564078 7.61198929 1.88709697 6.11371 0 3 C0 2.01 0 1.02 0 0 Z " fill="#DF5A5D" transform="translate(9,80)"/>
<path d="M0 0 C0.33 0 0.66 0 1 0 C1 1.65 1 3.3 1 5 C1.78375 4.505 2.5675 4.01 3.375 3.5 C6 2 6 2 8 2 C8.33 2.99 8.66 3.98 9 5 C7 7 7 7 3.875 7.125 C2.92625 7.08375 1.9775 7.0425 1 7 C-0.0625 5.1875 -0.0625 5.1875 -1 3 C-0.67 2.01 -0.34 1.02 0 0 Z " fill="#DE5658" transform="translate(34,59)"/>
<path d="M0 0 C-2.59498265 2.78998135 -4.14239018 3.63260859 -8 4 C-10.8125 3.5625 -10.8125 3.5625 -13 3 C-9.21656826 -0.94792877 -5.07874402 -0.29300446 0 0 Z " fill="#E7585A" transform="translate(39,46)"/>
<path d="M0 0 C0.825 0.165 1.65 0.33 2.5 0.5 C2.83 1.49 3.16 2.48 3.5 3.5 C2.51 3.5 1.52 3.5 0.5 3.5 C0.5 2.84 0.5 2.18 0.5 1.5 C-3.48381075 3.66264012 -6.38983545 6.21211176 -9.5 9.5 C-10.16 9.17 -10.82 8.84 -11.5 8.5 C-4.60284464 0.65754923 -4.60284464 0.65754923 0 0 Z " fill="#D45659" transform="translate(62.5,33.5)"/>
<path d="M0 0 C1.67542976 0.28604898 3.34385343 0.61781233 5 1 C5 1.66 5 2.32 5 3 C4.01 3 3.02 3 2 3 C2 3.66 2 4.32 2 5 C0.35 5 -1.3 5 -3 5 C-1.125 1.125 -1.125 1.125 0 0 Z " fill="#DD5A57" transform="translate(61,49)"/>
<path d="M0 0 C1.32 0.66 2.64 1.32 4 2 C0.535 4.97 0.535 4.97 -3 8 C-2.690625 7.236875 -2.38125 6.47375 -2.0625 5.6875 C-1.32106407 3.81210323 -0.63771783 1.91315348 0 0 Z " fill="#D85858" transform="translate(60,41)"/>
<path d="M0 0 C1.65 0.33 3.3 0.66 5 1 C3.02 3.31 1.04 5.62 -1 8 C-1 5.16032769 -0.59732819 2.76264289 0 0 Z " fill="#DC5657" transform="translate(43,77)"/>
<path d="M0 0 C0.598125 0.20625 1.19625 0.4125 1.8125 0.625 C1.4825 1.945 1.1525 3.265 0.8125 4.625 C0.1525 4.625 -0.5075 4.625 -1.1875 4.625 C-1.1875 3.965 -1.1875 3.305 -1.1875 2.625 C-2.5075 2.295 -3.8275 1.965 -5.1875 1.625 C-2.1875 -0.375 -2.1875 -0.375 0 0 Z " fill="#F8504F" transform="translate(67.1875,47.375)"/>
</svg>
