<svg width="24" height="19" viewBox="0 0 24 19" fill="none" xmlns="http://www.w3.org/2000/svg">
<path d="M2.30352 5.85656C2.60712 6.07241 3.52227 6.71352 5.04902 7.77953C6.57582 8.84554 7.74545 9.66635 8.55797 10.242C8.64724 10.3051 8.83689 10.4422 9.12702 10.6537C9.4172 10.8652 9.65832 11.0362 9.85018 11.1666C10.0422 11.2969 10.2743 11.4432 10.5467 11.6051C10.8191 11.7668 11.0758 11.8885 11.3169 11.969C11.558 12.0502 11.7812 12.0904 11.9865 12.0904H12.0135C12.2188 12.0904 12.4421 12.0502 12.6832 11.969C12.9242 11.8885 13.1811 11.7667 13.4533 11.6051C13.7255 11.443 13.9576 11.2969 14.1496 11.1666C14.3416 11.0362 14.5826 10.8652 14.8728 10.6537C15.1629 10.4421 15.3528 10.3051 15.4421 10.242C16.2634 9.66635 18.3528 8.2044 21.7098 5.85627C22.3616 5.39766 22.9061 4.84428 23.3436 4.19652C23.7813 3.54903 24 2.86979 24 2.15916C24 1.56532 23.7878 1.05699 23.3636 0.634201C22.9395 0.211322 22.4372 0 21.857 0H2.14276C1.45531 0 0.926269 0.233867 0.555733 0.701601C0.185244 1.16943 0 1.75419 0 2.45584C0 3.0226 0.245616 3.63676 0.736615 4.29795C1.22757 4.95918 1.75004 5.47877 2.30352 5.85656Z" fill="#BB0000"/>
<path d="M22.6605 7.30031C19.7322 9.2973 17.5088 10.8493 15.9911 11.956C15.4822 12.3337 15.0693 12.6285 14.7523 12.8398C14.4352 13.0512 14.0136 13.2671 13.4867 13.4874C12.96 13.708 12.4691 13.818 12.0137 13.818H11.9866C11.5312 13.818 11.0401 13.708 10.5134 13.4874C9.98668 13.2671 9.56473 13.0512 9.24777 12.8398C8.9309 12.6285 8.51791 12.3337 8.00904 11.956C6.80361 11.0654 4.5849 9.5133 1.35281 7.30031C0.843755 6.95868 0.392864 6.56709 0 6.12634V16.8406C0 17.4347 0.209731 17.9428 0.629427 18.3656C1.04903 18.7886 1.55358 19 2.1429 19H21.8572C22.4464 19 22.9509 18.7886 23.3706 18.3656C23.7904 17.9426 24 17.4348 24 16.8406V6.12634C23.616 6.55797 23.1697 6.94956 22.6605 7.30031Z" fill="#BB0000"/>
</svg>
